<svg xmlns:dc="http://purl.org/dc/elements/1.1/" xmlns:cc="http://creativecommons.org/ns#" xmlns:rdf="http://www.w3.org/1999/02/22-rdf-syntax-ns#" xmlns:svg="http://www.w3.org/2000/svg" xmlns="http://www.w3.org/2000/svg" id="svg7" height="32" width="32" version="1.0" preserveAspectRatio="xMidYMid meet" viewBox="0 0 32 30" style="font-size: 32px; color: rgb(216, 31, 6);">
  <metadata id="metadata11" style="fill: rgb(216, 31, 6);">
    <rdf:rdf style="fill: rgb(216, 31, 6);">
      <cc:work rdf:about="" style="fill: rgb(216, 31, 6);">
        <dc:format style="fill: rgb(216, 31, 6);">image/svg+xml</dc:format>
        <dc:type rdf:resource="http://purl.org/dc/dcmitype/StillImage" style="fill: rgb(216, 31, 6);"></dc:type>
      </cc:work>
    </rdf:rdf>
  </metadata>
  <defs id="defs3" style="fill: rgb(216, 31, 6);">
    <pattern y="0" x="0" height="6" width="6" patternUnits="userSpaceOnUse" id="EMFhbasepattern" style="fill: rgb(216, 31, 6);"></pattern>
  </defs>
  <path id="path5" d="  M 28.337232,25.070635   L 28.337232,25.070635   C 30.120835,27.255047 30.120835,27.255047 30.120835,27.255047   C 30.461523,27.255047 30.822251,27.615775 30.822251,27.956463   C 30.822251,29.018609 30.120835,29.379337 29.399378,29.379337   C 29.058689,29.379337 28.697961,29.379337 28.337232,29.018609   C 26.53359,27.255047 26.53359,27.255047 26.53359,27.255047   C 24.409299,29.018609 24.409299,29.018609 24.409299,29.018609   C 24.409299,29.379337 24.048571,29.379337 23.687842,29.379337   C 22.625697,29.379337 22.285009,29.018609 22.285009,27.956463   C 22.285009,27.615775 22.285009,27.255047 22.625697,27.255047   C 24.409299,25.070635 24.409299,25.070635 24.409299,25.070635   C 22.625697,23.307073 22.625697,23.307073 22.625697,23.307073   C 22.285009,22.946344 22.285009,22.605656 22.285009,22.244928   C 22.285009,21.543511 22.625697,20.822054 23.687842,20.822054   C 24.048571,20.822054 24.409299,21.182783 24.409299,21.543511   C 26.53359,23.307073 26.53359,23.307073 26.53359,23.307073   C 28.337232,21.543511 28.337232,21.543511 28.337232,21.543511   C 28.697961,21.182783 29.058689,20.822054 29.399378,20.822054   C 30.120835,20.822054 30.822251,21.543511 30.822251,22.244928   C 30.822251,22.605656 30.461523,22.946344 30.120835,23.307073   L 28.337232,25.070635   z  M 20.822054,22.244928   L 20.822054,22.244928   C 20.822054,23.307073 21.162742,24.00849 21.523471,24.369218   C 22.285009,25.070635 22.285009,25.070635 22.285009,25.070635   C 21.523471,26.192901 21.523471,26.192901 21.523471,26.192901   C 21.162742,26.55363 20.822054,27.255047 20.822054,27.956463   C 20.822054,28.67792 20.822054,29.018609 21.162742,29.379337   C 1.5631571,29.379337 1.5631571,29.379337 1.5631571,29.379337   C 0.84169997,29.379337 0.080161902,29.018609 0.080161902,27.956463   C 0.080161902,27.956463 0.080161902,22.946344 4.0281356,20.822054   C 6.5532355,19.719828 5.4510093,20.822054 8.3368378,19.359099   C 11.503233,18.296954 12.264771,17.936226 12.264771,17.936226   C 12.264771,15.070438 12.264771,15.070438 12.264771,15.070438   C 12.264771,15.070438 11.162545,14.008292 10.801816,11.523273   C 10.1004,11.884002 9.7396711,10.821857 9.7396711,10.1004   C 9.7396711,9.3388616 9.398983,7.5752997 10.1004,7.5752997   C 10.1004,6.5131545 9.7396711,5.0902808 10.1004,4.7495927   C 10.1004,2.5651809 12.264771,0.080161902 15.451207,0.080161902   C 19.39918,0.080161902 20.822054,2.5651809 21.162742,4.7495927   C 21.162742,5.0902808 20.822054,6.5131545 20.822054,7.5752997   C 21.523471,7.5752997 21.162742,9.3388616 21.162742,10.1004   C 21.162742,10.821857 20.822054,11.884002 20.100597,11.523273   C 19.759909,14.008292 18.697764,15.070438 18.697764,15.070438   C 18.697764,17.936226 18.697764,17.936226 18.697764,17.936226   C 18.697764,17.936226 19.39918,18.296954 22.625697,19.359099   C 22.625697,19.359099 22.625697,19.719828 22.986425,19.719828   C 21.523471,20.120637 20.822054,21.182783 20.822054,22.244928   z " style="fill: rgb(216, 31, 6); fill-rule: evenodd; fill-opacity: 1; stroke: none;"></path>
</svg>