<svg version="1.1" id="шо╛шоб" xmlns="http://www.w3.org/2000/svg" xmlns:xlink="http://www.w3.org/1999/xlink" x="0px" y="0px" viewBox="0 0 1024 1024" style="font-size: 32px;" xml:space="preserve" width="32" height="32">
<linearGradient id="SVGID_1_" gradientUnits="userSpaceOnUse" x1="910.221" y1="200" x2="158.0258" y2="200">
	<stop offset="0" style="stop-color:#4BEBF5"></stop>
	<stop offset="1" style="stop-color:#50AAFF"></stop>
</linearGradient>
<path style="fill:url(#SVGID_1_);" d="M200,284c-46.317,0-84-37.683-84-84s37.683-84,84-84s84,37.683,84,84S246.317,284,200,284z
	 M200,140c-33.084,0-60,26.916-60,60s26.916,60,60,60s60-26.916,60-60S233.084,140,200,140z"></path>
<g>
	<g>
		<linearGradient id="SVGID_2_" gradientUnits="userSpaceOnUse" x1="910.221" y1="200" x2="158.0258" y2="200">
			<stop offset="0" style="stop-color:#4BEBF5"></stop>
			<stop offset="1" style="stop-color:#50AAFF"></stop>
		</linearGradient>
		<path style="fill:url(#SVGID_2_);" d="M512,284c46.317,0,84-37.683,84-84s-37.683-84-84-84s-84,37.683-84,84S465.683,284,512,284z
			 M512,140c33.084,0,60,26.916,60,60s-26.916,60-60,60s-60-26.916-60-60S478.916,140,512,140z"></path>
		<linearGradient id="SVGID_3_" gradientUnits="userSpaceOnUse" x1="910.221" y1="368" x2="158.0258" y2="368">
			<stop offset="0" style="stop-color:#4BEBF5"></stop>
			<stop offset="1" style="stop-color:#50AAFF"></stop>
		</linearGradient>
		<path style="fill:url(#SVGID_3_);" d="M652,424v-32c0-50.729-41.271-92-92-92h-96c-50.729,0-92,41.271-92,92v32
			c0,6.627,5.373,12,12,12h128h128C646.627,436,652,430.627,652,424z M628,412H396v-20c0-37.495,30.505-68,68-68h96
			c37.495,0,68,30.505,68,68V412z"></path>
		<linearGradient id="SVGID_4_" gradientUnits="userSpaceOnUse" x1="910.221" y1="200" x2="158.0258" y2="200">
			<stop offset="0" style="stop-color:#4BEBF5"></stop>
			<stop offset="1" style="stop-color:#50AAFF"></stop>
		</linearGradient>
		<path style="fill:url(#SVGID_4_);" d="M824,284c46.317,0,84-37.683,84-84s-37.683-84-84-84s-84,37.683-84,84S777.683,284,824,284z
			 M824,140c33.084,0,60,26.916,60,60s-26.916,60-60,60s-60-26.916-60-60S790.916,140,824,140z"></path>
		<linearGradient id="SVGID_5_" gradientUnits="userSpaceOnUse" x1="910.221" y1="632" x2="158.0258" y2="632">
			<stop offset="0" style="stop-color:#4BEBF5"></stop>
			<stop offset="1" style="stop-color:#50AAFF"></stop>
		</linearGradient>
		<path style="fill:url(#SVGID_5_);" d="M792,524c28.673,0,52-23.327,52-52v-36h108c6.627,0,12-5.373,12-12v-32
			c0-50.729-41.271-92-92-92h-96c-50.729,0-92,41.271-92,92v32c0,6.627,5.373,12,12,12h124v36c0,15.439-12.561,28-28,28H524v-52
			c0-6.627-5.373-12-12-12s-12,5.373-12,12v52H232c-15.439,0-28-12.561-28-28v-36h124c6.627,0,12-5.373,12-12v-32
			c0-50.729-41.271-92-92-92h-96c-50.729,0-92,41.271-92,92v32c0,6.627,5.373,12,12,12h108v36c0,28.673,23.327,52,52,52h268v72H168
			H72c-6.627,0-12,5.373-12,12s5.373,12,12,12h84.221c1.439,43.816,10.743,86.342,27.76,126.575
			c17.931,42.394,43.598,80.465,76.288,113.155s70.762,58.357,113.155,76.288C417.322,954.586,463.945,964,512,964
			s94.678-9.414,138.575-27.981c42.394-17.931,80.465-43.598,113.155-76.288s58.357-70.762,76.288-113.155
			c17.017-40.233,26.321-82.759,27.76-126.575H952c6.627,0,12-5.373,12-12s-5.373-12-12-12h-96H524v-72H792z M708,392
			c0-37.495,30.505-68,68-68h96c37.495,0,68,30.505,68,68v20H708V392z M84,392c0-37.495,30.505-68,68-68h96
			c37.495,0,68,30.505,68,68v20H84V392z M655.995,751.995c-40.867,9.649-85.591,15.086-131.995,15.889V620h147.884
			C671.082,666.405,665.644,711.128,655.995,751.995z M695.887,620h147.152c-5.838,36.765-38.393,71.506-93.161,98.89
			c-20.542,10.271-43.317,19.034-67.775,26.202C690.447,705.839,695.156,663.591,695.887,620z M352.116,620H500v147.884
			c-46.405-0.802-91.128-6.24-131.995-15.889C358.356,711.128,352.918,666.405,352.116,620z M341.897,745.092
			c-24.458-7.168-47.234-15.932-67.775-26.202c-54.768-27.384-87.323-62.125-93.161-98.89h147.152
			C328.844,663.591,333.553,705.839,341.897,745.092z M500,791.887v147.152c-36.765-5.838-71.506-38.393-98.89-93.161
			c-10.271-20.541-19.034-43.317-26.202-67.775C414.161,786.447,456.409,791.156,500,791.887z M524,939.039V791.887
			c43.591-0.731,85.839-5.44,125.092-13.784c-7.168,24.458-15.932,47.234-26.202,67.775
			C595.506,900.646,560.765,933.201,524,939.039z M189.502,686.915c17.919,19.79,42.745,37.87,73.887,53.441
			c25.424,12.712,54.016,23.237,84.855,31.401c8.164,30.839,18.688,59.431,31.401,84.855c15.571,31.142,33.651,55.968,53.441,73.887
			C313.298,901.181,218.819,806.702,189.502,686.915z M590.915,930.498c19.79-17.919,37.87-42.745,53.441-73.887
			c12.712-25.424,23.237-54.016,31.401-84.855c30.839-8.164,59.431-18.688,84.855-31.401c31.142-15.571,55.968-33.651,73.887-53.441
			C805.181,806.702,710.702,901.181,590.915,930.498z"></path>
	</g>
</g>
</svg>