<svg version="1.1" id="шо╛шоб" xmlns="http://www.w3.org/2000/svg" xmlns:xlink="http://www.w3.org/1999/xlink" x="0px" y="0px" viewBox="0 0 1024 1024" style="font-size: 32px;" xml:space="preserve" width="32" height="32">
<g>
	<linearGradient id="SVGID_1_" gradientUnits="userSpaceOnUse" x1="868.9669" y1="240" x2="132.6877" y2="240">
		<stop offset="0" style="stop-color:#4BEBF5"></stop>
		<stop offset="1" style="stop-color:#50AAFF"></stop>
	</linearGradient>
	<path style="fill:url(#SVGID_1_);" d="M448,268h128c6.627,0,12-5.373,12-12v-32c0-6.627-5.373-12-12-12H448
		c-6.627,0-12,5.373-12,12v32C436,262.627,441.373,268,448,268z M460,236h104v8H460V236z"></path>
	<linearGradient id="SVGID_2_" gradientUnits="userSpaceOnUse" x1="868.9669" y1="336" x2="132.6877" y2="336">
		<stop offset="0" style="stop-color:#4BEBF5"></stop>
		<stop offset="1" style="stop-color:#50AAFF"></stop>
	</linearGradient>
	<path style="fill:url(#SVGID_2_);" d="M448,364h128c6.627,0,12-5.373,12-12v-32c0-6.627-5.373-12-12-12H448
		c-6.627,0-12,5.373-12,12v32C436,358.627,441.373,364,448,364z M460,332h104v8H460V332z"></path>
	<linearGradient id="SVGID_3_" gradientUnits="userSpaceOnUse" x1="868.9669" y1="392" x2="132.6877" y2="392">
		<stop offset="0" style="stop-color:#4BEBF5"></stop>
		<stop offset="1" style="stop-color:#50AAFF"></stop>
	</linearGradient>
	<path style="fill:url(#SVGID_3_);" d="M320,364h-32c-6.627,0-12,5.373-12,12v32c0,6.627,5.373,12,12,12h32c6.627,0,12-5.373,12-12
		v-32C332,369.373,326.627,364,320,364z M308,396h-8v-8h8V396z"></path>
	<linearGradient id="SVGID_4_" gradientUnits="userSpaceOnUse" x1="868.9669" y1="472" x2="132.6877" y2="472">
		<stop offset="0" style="stop-color:#4BEBF5"></stop>
		<stop offset="1" style="stop-color:#50AAFF"></stop>
	</linearGradient>
	<path style="fill:url(#SVGID_4_);" d="M320,444h-32c-6.627,0-12,5.373-12,12v32c0,6.627,5.373,12,12,12h32c6.627,0,12-5.373,12-12
		v-32C332,449.373,326.627,444,320,444z M308,476h-8v-8h8V476z"></path>
	<linearGradient id="SVGID_5_" gradientUnits="userSpaceOnUse" x1="868.9669" y1="472" x2="132.6877" y2="472">
		<stop offset="0" style="stop-color:#4BEBF5"></stop>
		<stop offset="1" style="stop-color:#50AAFF"></stop>
	</linearGradient>
	<path style="fill:url(#SVGID_5_);" d="M688,500h32c6.627,0,12-5.373,12-12v-32c0-6.627-5.373-12-12-12h-32c-6.627,0-12,5.373-12,12
		v32C676,494.627,681.373,500,688,500z M700,468h8v8h-8V468z"></path>
	<linearGradient id="SVGID_6_" gradientUnits="userSpaceOnUse" x1="868.9669" y1="432" x2="132.6877" y2="432">
		<stop offset="0" style="stop-color:#4BEBF5"></stop>
		<stop offset="1" style="stop-color:#50AAFF"></stop>
	</linearGradient>
	<path style="fill:url(#SVGID_6_);" d="M448,460h128c6.627,0,12-5.373,12-12v-32c0-6.627-5.373-12-12-12H448
		c-6.627,0-12,5.373-12,12v32C436,454.627,441.373,460,448,460z M460,428h104v8H460V428z"></path>
	<linearGradient id="SVGID_7_" gradientUnits="userSpaceOnUse" x1="868.9669" y1="528" x2="132.6877" y2="528">
		<stop offset="0" style="stop-color:#4BEBF5"></stop>
		<stop offset="1" style="stop-color:#50AAFF"></stop>
	</linearGradient>
	<path style="fill:url(#SVGID_7_);" d="M448,556h128c6.627,0,12-5.373,12-12v-32c0-6.627-5.373-12-12-12H448
		c-6.627,0-12,5.373-12,12v32C436,550.627,441.373,556,448,556z M460,524h104v8H460V524z"></path>
	<linearGradient id="SVGID_8_" gradientUnits="userSpaceOnUse" x1="868.9669" y1="512" x2="132.6877" y2="512">
		<stop offset="0" style="stop-color:#4BEBF5"></stop>
		<stop offset="1" style="stop-color:#50AAFF"></stop>
	</linearGradient>
	<path style="fill:url(#SVGID_8_);" d="M952,596h-96h-76V320c0-6.627-5.373-12-12-12H652V160c0-6.627-5.373-12-12-12h-52V72
		c0-6.627-5.373-12-12-12H448c-6.627,0-12,5.373-12,12v76h-52c-6.627,0-12,5.373-12,12v84H256c-6.627,0-12,5.373-12,12v52h-20
		c-6.627,0-12,5.373-12,12v276h-44H72c-6.627,0-12,5.373-12,12s5.373,12,12,12h84.221c1.439,43.815,10.743,86.342,27.76,126.575
		c17.931,42.394,43.598,80.465,76.288,113.155s70.762,58.358,113.155,76.289C417.322,954.586,463.945,964,512,964
		s94.678-9.414,138.575-27.981c42.394-17.931,80.465-43.599,113.155-76.289s58.357-70.761,76.288-113.155
		c17.017-40.232,26.321-82.759,27.76-126.575H952c6.627,0,12-5.373,12-12S958.627,596,952,596z M224,620h104.113
		c0.731,43.591,5.44,85.839,13.784,125.092c-24.458-7.168-47.234-15.932-67.775-26.203c-54.768-27.384-87.323-62.124-93.161-98.889
		H224z M352.116,620H384h116v147.884c-46.405-0.802-91.128-6.24-131.995-15.889C358.356,711.128,352.918,666.404,352.116,620z
		 M500,791.887v147.152c-36.765-5.838-71.506-38.392-98.89-93.161c-10.271-20.541-19.034-43.317-26.202-67.775
		C414.161,786.447,456.409,791.156,500,791.887z M524,939.039V791.887c43.591-0.731,85.839-5.44,125.092-13.784
		c-7.168,24.458-15.932,47.234-26.202,67.775C595.506,900.646,560.765,933.201,524,939.039z M524,767.884V620h116h31.884
		c-0.802,46.404-6.24,91.128-15.889,131.995C615.128,761.644,570.405,767.082,524,767.884z M695.887,620H768h75.039
		c-5.838,36.765-38.393,71.505-93.161,98.889c-20.542,10.271-43.317,19.034-67.775,26.203
		C690.447,705.839,695.156,663.591,695.887,620z M756,332v264H652V332H756z M460,84h104v64H460V84z M396,172h52h128h52v148v276H396
		V320v-64V172z M268,268h104v40H268V268z M236,332h20h116v264H236V332z M189.502,686.914c17.919,19.79,42.745,37.87,73.887,53.441
		c25.424,12.712,54.016,23.237,84.855,31.401c8.164,30.839,18.688,59.431,31.401,84.855c15.571,31.142,33.651,55.968,53.441,73.887
		C313.298,901.182,218.819,806.702,189.502,686.914z M590.914,930.498c19.791-17.919,37.871-42.745,53.441-73.887
		c12.712-25.424,23.237-54.016,31.401-84.855c30.839-8.164,59.431-18.688,84.855-31.401c31.142-15.571,55.968-33.651,73.887-53.441
		C805.181,806.702,710.702,901.182,590.914,930.498z"></path>
</g>
</svg>