<svg version="1.1" id="图层_1" xmlns="http://www.w3.org/2000/svg" xmlns:xlink="http://www.w3.org/1999/xlink" x="0px" y="0px" viewBox="0 0 1024 1024" style="font-size: 32px;" xml:space="preserve" width="32" height="32">
<style type="text/css">
	.st0{fill:#F4CCCC;}
	.st1{fill:#E0989B;}
	.st2{fill:#F1ADAC;}
	.st3{fill:#547A9F;}
	.st4{fill:#96CCB2;}
	.st5{fill:#A997C1;}
	.st6{fill:#AFDCC8;}
	.st7{fill:#6699CC;}
	.st8{fill:#517C9F;}
	.st9{fill:#F8ECC2;}
	.st10{fill:#FFFF00;}
	.st11{fill:#FFCC33;}
	.st12{fill:#FF9900;}
	.st13{fill:#E7969C;}
	.st14{fill:#537A99;}
	.st15{fill:#FFFFCC;}
	.st16{fill:#95CBB1;}
	.st17{fill:#E1999A;}
	.st18{fill:#FCEFBB;}
	.st19{fill:#FFCC00;}
	.st20{fill:#00CC00;}
	.st21{fill:#FFFFFF;}
	.st22{fill:#D72427;}
	.st23{fill:#CC3300;}
	.st24{fill:#FEFFFF;}
	.st25{fill:#EFAEAC;}
	.st26{fill:#FF9966;}
	.st27{fill:#999999;}
	.st28{fill:#666699;}
	.st29{fill:#FFF2BE;}
	.st30{fill:#FF8F52;}
	.st31{fill:#DFCDE9;}
</style>
<g transform="matrix( 1, 0, 0, 1, 0,0) ">
	<g>
		<g id="Layer0_7_FILL">
			<path class="st20" d="M626.3,545.9h-16.6v7.8C615,551,620.5,548.4,626.3,545.9 M824.5,576.2h-6.1c2.1,1.7,4.1,3.4,6.1,5.1V576.2z
				"></path>
			<path class="st19" d="M693.8,187.9l130.7-1.6L693.8,61.5V187.9 M342.5,238.4c-11.9,11.9-26.2,17.8-43.1,17.8
				c-16.3,0-30.3-5.5-42.1-16.6l-87.5,67.1v74.4h263.2v-74.4L342.5,238.4z"></path>
			<path class="st18" d="M697.5,532.6c11,0,21.6,0.8,31.9,2.3c33.3,5.3,63,19.1,89.1,41.3h6.1V186.3l-130.7,1.6V61.5H110.9v909.7
				h713.6v-108c-1.6,1.3-3.2,2.7-4.9,4.1c-0.4,0.4-0.8,0.8-1.2,1.2c-26.1,22.2-55.8,35.9-89.1,41.1c-10.3,1.6-20.9,2.3-31.9,2.3
				c-46.7,0-87.4-14.9-122.1-44.6c-3.9-3.4-7.8-7-11.7-11c-5-5-9.7-10.1-14.1-15.5c-27.6-33.8-41.4-73.2-41.5-118.2
				c0-0.1,0-0.2,0-0.4c0-7.2,0.3-14.3,1-21.3c4.5-43.2,22.7-80.8,54.6-112.7c14.2-14.2,29.6-25.7,46-34.4v-7.8H174.7h434.9h16.6
				C648.1,537,671.8,532.6,697.5,532.6 M519.2,231.2c4.6,0,8.5,1.6,11.7,4.7c3.1,3.5,4.7,7.4,4.7,11.7c0,4.3-1.6,8-4.7,11.2
				c-3.3,3.1-7.2,4.7-11.7,4.7c-4.3,0-8-1.6-11.2-4.7c-3.3-3.1-4.9-6.9-4.9-11.2c0-4.3,1.6-8.2,4.9-11.7
				C511.2,232.7,514.9,231.2,519.2,231.2 M360.3,195.3c0,16.8-5.9,31.2-17.8,43.1l90.6,68.3v74.4H169.8v-74.4l87.5-67.1
				c-0.4-0.4-0.8-0.8-1.2-1.2c-11.9-11.9-17.8-26.2-17.8-43.1s5.9-31.3,17.8-43.3c12-11.9,26.4-17.8,43.3-17.8
				c16.8,0,31.2,5.9,43.1,17.8C354.3,164.1,360.3,178.5,360.3,195.3 M677.4,231.2c4.2,0,8,1.6,11.5,4.7c3.3,3.5,4.9,7.4,4.9,11.7
				c0,4.3-1.6,8-4.9,11.2c-3.5,3.1-7.4,4.7-11.5,4.7c-4.3,0-8.1-1.6-11.4-4.7c-3.1-3.1-4.7-6.9-4.7-11.2c0-4.3,1.6-8.2,4.7-11.7
				C669.3,232.7,673.1,231.2,677.4,231.2 M609.4,235.9c1.1,1.2,2,2.5,2.7,3.7c1.3,2.6,2,5.2,2,8c0,0.9-0.1,1.8-0.2,2.7
				c-0.5,3.2-2,6-4.5,8.4c-3.3,3.1-7,4.7-11.2,4.7c-4.7,0-8.6-1.6-11.7-4.7c-3.1-3.1-4.7-6.9-4.7-11.2c0-4.3,1.6-8.2,4.7-11.7
				c3.1-3.1,7-4.7,11.7-4.7C602.5,231.2,606.2,232.7,609.4,235.9 M509.4,312.6h230.4H509.4 M513.9,378.2h227.4H513.9 M276.1,904.5
				l1.6-163.4L276.1,904.5h75V787v117.4h75.2l-1.6-190.2l1.6,190.2h22.3h-22.3h-75.2H276.1h-73h-37.2h37.2l-1.6-92.2l1.6,92.2H276.1
				 M174.7,470.1h562.1H174.7z"></path>
			<path class="st16" d="M612.2,239.6c-0.7-1.2-1.6-2.5-2.7-3.7c-3.3-3.1-7-4.7-11.2-4.7c-4.7,0-8.6,1.6-11.7,4.7
				c-3.1,3.5-4.7,7.4-4.7,11.7c0,4.3,1.6,8,4.7,11.2c3.1,3.1,7,4.7,11.7,4.7c4.2,0,7.9-1.6,11.2-4.7c2.5-2.5,4-5.3,4.5-8.4
				c0.1-0.9,0.2-1.8,0.2-2.7C614.1,244.8,613.5,242.1,612.2,239.6 M688.9,235.9c-3.5-3.1-7.4-4.7-11.5-4.7c-4.3,0-8.1,1.6-11.4,4.7
				c-3.1,3.5-4.7,7.4-4.7,11.7c0,4.3,1.6,8,4.7,11.2c3.3,3.1,7,4.7,11.4,4.7c4.2,0,8-1.6,11.5-4.7c3.3-3.1,4.9-6.9,4.9-11.2
				C693.8,243.3,692.2,239.4,688.9,235.9 M531,235.9c-3.3-3.1-7.2-4.7-11.7-4.7c-4.3,0-8,1.6-11.2,4.7c-3.3,3.5-4.9,7.4-4.9,11.7
				c0,4.3,1.6,8,4.9,11.2c3.1,3.1,6.9,4.7,11.2,4.7c4.6,0,8.5-1.6,11.7-4.7c3.1-3.1,4.7-6.9,4.7-11.2
				C535.7,243.3,534.1,239.4,531,235.9 M824.5,650c-1.8-3.4-3.8-6.7-6.1-9.8c-5.5-8.4-12.1-16.4-19.8-24.1
				c-19.4-19.4-41.6-32.4-66.3-38.9c-10.7-2.6-21.9-4.1-33.7-4.5c-1.7,0-3.3,0-4.9,0c-41,0-75.9,14.4-104.7,43.3
				c-0.1,0.1-0.1,0.1-0.2,0.2c-25.6,25.5-40,55.5-43.3,90c-0.4,4.9-0.6,10-0.6,15.1c0,40.8,14.6,75.8,43.8,104.9
				c15,15.1,31.6,26.4,49.9,33.7c8.1,3.4,16.6,5.9,25.4,7.4c9.5,1.8,19.4,2.7,29.6,2.7c10,0,19.8-0.9,29.4-2.7
				c3.1-0.7,6.2-1.4,9.2-2.2c24.8-6.3,46.9-19.2,66.3-38.9c7.7-7.7,14.3-15.7,19.8-24.1c2.2-3.1,4.2-6.3,6.1-9.4
				c11.9-21.4,17.8-45.2,17.8-71.4C842.4,695.2,836.4,671.4,824.5,650 M695.2,724.6v-72.8V724.6h74.4H695.2V790V724.6h-65.4H695.2z"></path>
			<path class="st17" d="M342.5,238.4c11.9-11.9,17.8-26.2,17.8-43.1s-5.9-31.3-17.8-43.3c-11.9-11.9-26.2-17.8-43.1-17.8
				c-16.8,0-31.3,5.9-43.3,17.8c-11.9,12-17.8,26.4-17.8,43.3s5.9,31.2,17.8,43.1c0.4,0.4,0.8,0.8,1.2,1.2
				c11.7,11.1,25.8,16.6,42.1,16.6C316.2,256.2,330.6,250.3,342.5,238.4 M729.4,534.9c-10.3-1.6-20.9-2.3-31.9-2.3
				c-25.7,0-49.5,4.4-71.2,13.3c-5.7,2.5-11.3,5.1-16.6,7.8c-16.4,8.7-31.8,20.2-46,34.4c-31.9,31.9-50.1,69.5-54.6,112.7
				c-0.7,7-1,14.1-1,21.3c0,0.2,0,0.3,0,0.4c0.1,45,13.9,84.4,41.5,118.2c4.4,5.3,9.1,10.5,14.1,15.5c3.9,3.9,7.8,7.6,11.7,11
				c34.7,29.7,75.4,44.6,122.1,44.6c11,0,21.6-0.8,31.9-2.3c33.3-5.2,63-18.9,89.1-41.1c0.4-0.4,0.8-0.8,1.2-1.2
				c1.7-1.4,3.3-2.8,4.9-4.1c2.3-2.2,4.7-4.5,7-6.9c37.1-37.1,55.6-81.7,55.6-134.1c0-52.3-18.5-97-55.6-134.1
				c-2.3-2.3-4.7-4.6-7-6.9c-2-1.7-4-3.4-6.1-5.1C792.4,554,762.7,540.3,729.4,534.9 M818.5,640.2c2.2,3.1,4.2,6.4,6.1,9.8
				c11.9,21.4,17.8,45.1,17.8,71.2c0,26.2-5.9,50-17.8,71.4c-1.8,3.1-3.8,6.3-6.1,9.4c-5.5,8.4-12.1,16.4-19.8,24.1
				c-19.4,19.7-41.6,32.7-66.3,38.9c-3,0.8-6.1,1.5-9.2,2.2c-9.5,1.8-19.3,2.7-29.4,2.7c-10.2,0-20-0.9-29.6-2.7
				c-8.9-1.6-17.4-4-25.4-7.4c-18.3-7.3-34.9-18.5-49.9-33.7c-29.2-29.1-43.8-64.1-43.8-104.9c0-5.1,0.2-10.1,0.6-15.1
				c3.3-34.6,17.7-64.6,43.3-90c0.1-0.1,0.1-0.1,0.2-0.2c28.8-28.8,63.7-43.3,104.7-43.3c1.6,0,3.2,0,4.9,0
				c11.7,0.4,23,1.9,33.7,4.5c24.8,6.5,46.9,19.5,66.3,38.9C806.4,623.9,813,631.9,818.5,640.2z"></path>
		</g>
	</g>
	<g>
		<path class="st5" d="M824.5,981.2H110.9c-5.5,0-10-4.5-10-10V61.5c0-5.5,4.5-10,10-10h582.8c0.1,0,0.3,0,0.4,0c0,0,0,0,0,0
			c0,0,0,0,0,0c1.1,0,2.2,0.3,3.2,0.7c1.2,0.5,2.3,1.2,3.3,2.1l130.7,124.9c2.1,2,3.1,4.6,3.1,7.3v394.9c0,5.5-4.5,10-10,10
			s-10-4.5-10-10V196.5l-120.6,1.4c-2.6,0-5.2-1-7.1-2.9s-3-4.4-3-7.1V71.5H120.9v889.7h693.6v-98c0-5.5,4.5-10,10-10s10,4.5,10,10
			v108C834.5,976.7,830.1,981.2,824.5,981.2z M703.8,84.9v92.9l96.1-1.2L703.8,84.9z M626.3,555.9H174.7c-5.5,0-10-4.5-10-10
			s4.5-10,10-10h451.5c5.5,0,10,4.5,10,10S631.8,555.9,626.3,555.9z M736.9,480.1H174.7c-5.5,0-10-4.5-10-10s4.5-10,10-10h562.1
			c5.5,0,10,4.5,10,10S742.4,480.1,736.9,480.1z M433.1,391.1H169.8c-5.5,0-10-4.5-10-10v-74.4c0-3.1,1.4-6,3.9-7.9l78.9-60.6
			c-9.5-12.3-14.3-26.7-14.3-42.9c0-19.5,7-36.4,20.7-50.3c0,0,0.1-0.1,0.1-0.1c13.9-13.7,30.8-20.7,50.3-20.7
			c19.5,0,36.4,7,50.1,20.7c13.8,13.9,20.7,30.8,20.7,50.3c0,15.6-4.5,29.5-13.3,41.5l82.1,61.9c2.5,1.9,4,4.8,4,8v74.4
			C443.1,386.6,438.6,391.1,433.1,391.1z M179.8,371.1h243.2v-59.4L343,251.3c-12.4,9.9-27.1,14.9-43.6,14.9
			c-15.9,0-30.1-4.6-42.4-13.8l-77.2,59.2V371.1z M264.3,232.4c9.9,9.3,21.4,13.8,35.1,13.8c14.2,0,26-4.9,36-14.9
			s14.9-21.8,14.9-36c0-14.2-4.9-26.1-14.9-36.2c-10-10-21.7-14.8-35.9-14.8c-14.2,0-26,4.9-36.2,14.9c-10,10.1-14.9,22-14.9,36.2
			c0,14.2,4.9,26,14.9,36L264.3,232.4z M741.4,388.2H513.9c-5.5,0-10-4.5-10-10s4.5-10,10-10h227.4c5.5,0,10,4.5,10,10
			S746.9,388.2,741.4,388.2z M739.8,322.6H509.4c-5.5,0-10-4.5-10-10s4.5-10,10-10h230.4c5.5,0,10,4.5,10,10
			S745.3,322.6,739.8,322.6z"></path>
	</g>
	<g>
		<path class="st14" d="M697.5,921.9c-48.9,0-92.2-15.8-128.6-47c-4.1-3.6-8.2-7.4-12.3-11.5c-5.1-5.1-10.1-10.6-14.7-16.1
			c-29-35.5-43.7-77.4-43.8-124.5v-0.5c0-7.5,0.4-15,1.1-22.3c4.6-45.4,23.9-85.4,57.4-118.9c14.9-14.9,31.1-27,48.4-36.2
			c0,0,0.1,0,0.1-0.1c5.5-2.8,11.3-5.6,17.2-8.1c0.1,0,0.1-0.1,0.2-0.1c22.9-9.3,48.1-14,75-14c11.4,0,22.7,0.8,33.4,2.5
			c35,5.6,66.6,20.3,93.9,43.5c2.1,1.7,4.2,3.5,6.2,5.2c0.1,0.1,0.2,0.2,0.3,0.3c2.4,2.3,4.8,4.6,7.3,7
			c38.8,38.8,58.5,86.3,58.5,141.1s-19.7,102.3-58.5,141.1c-2.4,2.4-4.8,4.8-7.3,7c-0.2,0.1-0.3,0.3-0.5,0.4c-1.4,1.2-3,2.5-4.5,3.8
			l-0.9,0.9c-0.2,0.2-0.4,0.4-0.6,0.5c-27.4,23.3-59,37.9-94,43.4C720.2,921.1,708.9,921.9,697.5,921.9z M614.3,562.6
			c-15.5,8.2-30.1,19.2-43.6,32.7c-30.1,30.1-47.5,66-51.6,106.8c-0.7,6.6-1,13.4-1,20.2v0.5c0.1,42.4,13.3,80,39.2,111.8
			c4.2,5,8.7,10,13.4,14.7c3.7,3.7,7.5,7.3,11.2,10.5c32.6,28,71.5,42.2,115.6,42.2c10.4,0,20.6-0.8,30.4-2.2
			c31.1-4.9,59.3-17.9,83.8-38.6l0.9-0.9c0.2-0.2,0.4-0.4,0.6-0.6c1.6-1.4,3.2-2.7,4.7-4c2.2-2.1,4.4-4.3,6.6-6.4
			c34.9-34.9,52.7-77.7,52.7-127s-17.7-92.1-52.7-127c-2.2-2.2-4.5-4.4-6.7-6.5c-1.8-1.6-3.7-3.2-5.7-4.7c-0.1,0-0.1-0.1-0.2-0.1
			c-24.6-20.9-52.9-34-84.2-39c-9.7-1.5-19.9-2.2-30.3-2.2c-24.2,0-46.9,4.2-67.4,12.5C624.7,557.5,619.4,560,614.3,562.6z"></path>
	</g>
	<g>
		<path class="st21" d="M695.2,800c-5.5,0-10-4.5-10-10v-55.4h-55.4c-5.5,0-10-4.5-10-10s4.5-10,10-10h55.4v-62.8
			c0-5.5,4.5-10,10-10s10,4.5,10,10v62.8h64.4c5.5,0,10,4.5,10,10s-4.5,10-10,10h-64.4V790C705.2,795.5,700.7,800,695.2,800z"></path>
	</g>
	<g>
		<polygon class="st5" points="458.6,914.5 155.9,914.5 155.9,894.5 193,894.5 191.4,802.4 211.4,802.1 213,894.5 266.2,894.5 
			267.8,730.9 287.8,731.1 286.2,894.5 341.1,894.5 341.1,777 361.1,777 361.1,894.5 416.2,894.5 414.6,704.3 434.6,704.1 
			436.2,894.5 458.6,894.5 		"></polygon>
	</g>
</g>
</svg>