<svg version="1.1" xmlns="http://www.w3.org/2000/svg" xmlns:xlink="http://www.w3.org/1999/xlink" x="0px" y="0px" viewBox="0 0 1024 1024" style="font-size: 16px;" xml:space="preserve" width="16" height="16">
<g id="设计">
	<g>
		<g>
			<path style="fill:#FAB450;" d="M510.818,141.267c-56.396-58.524-150.153-60.957-207.605-3.47
				c-56.338,56.373-56.328,147.743,0.032,204.103c-56.36-56.36-147.73-56.37-204.103-0.032
				c-57.487,57.452-55.053,151.209,3.47,207.605c103.964,100.185,243.283,69.295,344.257,50.861
				c22.2-4.053,44.967,3.063,60.924,19.02l313.08,313.08c13.422,13.422,35.182,13.422,48.604,0l12.151-12.151l36.453-36.453
				l36.453-36.453c13.421-13.422,13.421-35.182,0-48.604l0,0c-13.422-13.421-35.182-13.421-48.604,0l-36.453,36.453l-36.453-36.453
				l12.151-12.151c13.422-13.422,13.422-35.182,0-48.604l0,0c-13.422-13.421-35.182-13.421-48.604,0L784.42,750.17L580.699,546.449
				c-15.957-15.957-23.073-38.724-19.02-60.924C580.113,384.55,611.003,245.231,510.818,141.267z M269.708,471.672
				c-22.548-22.548-22.548-59.106,0-81.654c22.548-22.548,59.106-22.548,81.654,0c-22.548-22.548-22.548-59.106,0-81.654
				c22.548-22.548,59.106-22.548,81.654,0c64.157,64.157,0,163.308,23.33,186.638C433.016,471.672,333.865,535.828,269.708,471.672z
				"></path>
			<path style="fill:#5A1950;" d="M845.175,950.48c-10.85,0-21.699-4.13-29.958-12.39l-313.08-313.08
				c-14.104-14.104-34.225-20.385-53.831-16.807c-4.167,0.761-8.401,1.543-12.694,2.336c-42.849,7.917-92.532,17.093-143.389,17.096
				c-67.315,0.003-136.701-16.066-195.162-72.402c-30.383-29.279-47.327-68.569-47.71-110.634
				c-0.374-41.079,15.301-79.573,44.136-108.391c47.344-47.315,118.347-56.908,175.285-28.783
				c-28.125-56.937-18.533-127.94,28.782-175.285c28.818-28.835,67.302-44.508,108.392-44.135
				c42.064,0.383,81.354,17.327,110.633,47.709c98.897,102.628,73.703,238.986,55.307,338.55c-0.793,4.293-1.576,8.527-2.336,12.696
				c-3.579,19.604,2.704,39.727,16.807,53.831L784.42,738.856l6.494-6.494c16.519-16.52,43.397-16.52,59.917,0
				c8.002,8.002,12.409,18.642,12.409,29.958s-4.407,21.957-12.409,29.958l-6.494,6.494l25.139,25.139l30.796-30.796
				c8.002-8.002,18.642-12.409,29.958-12.409s21.957,4.407,29.958,12.409c16.519,16.52,16.519,43.398,0,59.917l-85.056,85.057
				C866.874,946.35,856.024,950.48,845.175,950.48z M459.198,591.217c20.156,0,39.73,7.958,54.252,22.48l313.08,313.08
				c10.281,10.28,27.009,10.28,37.29,0l85.056-85.057c10.281-10.281,10.28-27.009,0-37.29c-10.281-10.28-27.009-10.28-37.29,0
				l-36.453,36.453c-3.124,3.124-8.189,3.124-11.313,0l-36.453-36.453c-1.5-1.5-2.343-3.535-2.343-5.657s0.843-4.157,2.343-5.657
				l12.151-12.151c10.281-10.281,10.281-27.009,0-37.29c-10.281-10.28-27.009-10.28-37.29,0l-12.151,12.151
				c-3.124,3.124-8.189,3.124-11.313,0L575.042,552.105c-17.818-17.818-25.756-43.246-21.233-68.018
				c0.763-4.179,1.547-8.424,2.343-12.729c18.755-101.506,42.096-227.834-51.094-324.54c-26.273-27.265-61.523-42.469-99.257-42.813
				c-36.738-0.342-71.172,13.674-96.929,39.446c-53.128,53.161-53.115,139.646,0.03,192.791c1.562,1.562,2.343,3.609,2.343,5.657
				s-0.781,4.095-2.343,5.657c-3.124,3.124-8.189,3.124-11.313,0c-53.145-53.144-139.631-53.157-192.791-0.03
				c-25.772,25.756-39.781,60.179-39.447,96.928c0.343,37.734,15.548,72.984,42.813,99.258
				c96.705,93.189,223.034,69.85,324.541,51.094c4.305-0.795,8.549-1.58,12.728-2.343
				C450.016,591.627,454.622,591.217,459.198,591.217z M346.714,509.16c-28.405,0.001-57.821-6.99-82.662-31.832
				c-12.417-12.416-19.254-28.924-19.254-46.483s6.838-34.068,19.254-46.484c12.417-12.417,28.924-19.254,46.484-19.254
				c6.39,0,12.64,0.905,18.604,2.655c-6.537-22.331-1.015-47.474,16.566-65.055c12.417-12.417,28.925-19.254,46.484-19.254
				s34.068,6.838,46.484,19.254c42.997,42.997,32.517,99.715,24.864,141.13c-3.773,20.419-7.336,39.706-1.535,45.508
				c1.562,1.562,2.343,3.609,2.343,5.657s-0.781,4.095-2.343,5.657c-3.124,3.125-8.189,3.125-11.313,0
				c-5.804-5.801-25.089-2.239-45.508,1.535C387.695,505.424,367.473,509.159,346.714,509.16z M310.536,381.106
				c-13.286,0-25.776,5.173-35.17,14.568c-9.394,9.395-14.568,21.885-14.568,35.17c0,13.285,5.174,25.776,14.568,35.17
				c37.048,37.047,86.874,27.842,126.909,20.444c15.849-2.928,29.728-5.49,40.858-4.671c-0.822-11.128,1.743-25.007,4.671-40.858
				c7.397-40.035,16.604-89.861-20.444-126.909c-9.395-9.394-21.885-14.568-35.17-14.568s-25.776,5.174-35.17,14.568
				c-19.393,19.393-19.393,50.947,0,70.34c1.562,1.562,2.343,3.609,2.343,5.657s-0.781,4.095-2.343,5.657
				c-3.125,3.125-8.19,3.125-11.313,0C336.311,386.28,323.821,381.106,310.536,381.106z"></path>
		</g>
		<g>
			<path style="fill:#FA914B;" d="M881.627,920.283l36.453-36.453l36.453-36.453c13.421-13.422,13.421-35.182,0-48.604l0,0
				c-13.422-13.421-35.182-13.421-48.604,0l-36.453,36.453l-36.453-36.453l12.151-12.151c13.422-13.422,13.422-35.182,0-48.604l0,0
				c-13.422-13.421-35.182-13.421-48.604,0L784.42,750.17L580.699,546.449c-15.957-15.957-23.073-38.724-19.02-60.924
				c18.435-100.974,49.324-240.293-50.861-344.257c-56.396-58.524-150.153-60.957-207.605-3.47
				c-56.338,56.373-56.328,147.743,0.032,204.103 M351.362,390.018c-22.548-22.548-22.548-59.106,0-81.654
				c22.548-22.548,59.106-22.548,81.654,0c64.157,64.157,0,163.308,23.33,186.638"></path>
			<path style="fill:#5A1950;" d="M881.627,928.283c-2.047,0-4.095-0.781-5.657-2.343c-3.124-3.124-3.124-8.189,0-11.313
				l72.905-72.906c10.281-10.281,10.28-27.009,0-37.29c-10.281-10.28-27.009-10.281-37.29,0l-36.453,36.453
				c-3.124,3.124-8.189,3.124-11.313,0l-36.453-36.453c-3.124-3.124-3.124-8.189,0-11.313l12.151-12.151
				c10.281-10.281,10.281-27.009,0-37.29c-4.98-4.98-11.602-7.723-18.645-7.723s-13.665,2.743-18.645,7.723l-12.151,12.151
				c-3.124,3.124-8.189,3.124-11.313,0L575.042,552.105c-17.818-17.818-25.756-43.246-21.233-68.018
				c0.763-4.179,1.547-8.424,2.343-12.729c18.755-101.506,42.096-227.834-51.094-324.54c-26.273-27.265-61.523-42.469-99.257-42.813
				c-36.722-0.336-71.172,13.674-96.929,39.446c-53.128,53.161-53.115,139.646,0.03,192.791c3.125,3.124,3.125,8.189,0,11.313
				c-3.124,3.124-8.189,3.124-11.313,0c-59.381-59.381-59.397-156.016-0.034-215.415c28.818-28.835,67.313-44.528,108.392-44.135
				c42.064,0.383,81.354,17.327,110.633,47.709c98.896,102.628,73.703,238.986,55.307,338.55c-0.793,4.294-1.576,8.527-2.336,12.696
				c-3.58,19.604,2.704,39.727,16.807,53.831L784.42,738.856l6.494-6.494c8.002-8.002,18.642-12.409,29.958-12.409
				s21.957,4.407,29.958,12.409c16.52,16.519,16.52,43.398,0,59.917l-6.494,6.494l25.139,25.139l30.796-30.796
				c8.002-8.002,18.642-12.409,29.958-12.409s21.957,4.407,29.958,12.409c16.519,16.52,16.519,43.398,0,59.917l-72.905,72.906
				C885.722,927.501,883.675,928.283,881.627,928.283z M456.346,503.001c-2.048,0-4.095-0.781-5.657-2.343
				c-11.75-11.75-7.838-32.923-2.885-59.729c7.397-40.035,16.604-89.861-20.444-126.909c-19.394-19.393-50.947-19.393-70.341,0
				c-19.393,19.393-19.393,50.947,0,70.34c3.125,3.124,3.125,8.189,0,11.313c-3.125,3.125-8.19,3.125-11.313,0
				c-25.631-25.631-25.631-67.336,0-92.967c12.416-12.417,28.925-19.254,46.484-19.254s34.067,6.838,46.484,19.254
				c42.997,42.997,32.517,99.715,24.864,141.13c-3.773,20.419-7.336,39.706-1.535,45.508c3.125,3.124,3.124,8.189,0,11.313
				C460.441,502.22,458.394,503.001,456.346,503.001z"></path>
		</g>
	</g>
</g>
<g id="参考线_1_" style="display:none;">
</g>
</svg>