<svg version="1.1" id="шо╛шоб" xmlns="http://www.w3.org/2000/svg" xmlns:xlink="http://www.w3.org/1999/xlink" x="0px" y="0px" viewBox="0 0 1024 1024" style="font-size: 16px; color: rgb(19, 34, 122);" xml:space="preserve" width="16" height="16">
<g style="fill: rgb(19, 34, 122);">
	<path style="fill: rgb(19, 34, 122);" d="M512.5,976.5c-62.632,0-123.4-12.271-180.615-36.47c-55.254-23.371-104.875-56.825-147.482-99.433
		c-42.608-42.607-76.062-92.228-99.433-147.482C60.771,635.9,48.5,575.132,48.5,512.5s12.271-123.4,36.47-180.615
		c23.371-55.254,56.825-104.875,99.433-147.482c42.607-42.608,92.228-76.062,147.482-99.433C389.1,60.771,449.868,48.5,512.5,48.5
		s123.4,12.271,180.615,36.47c55.254,23.371,104.875,56.825,147.482,99.433c42.608,42.607,76.062,92.228,99.433,147.482
		c24.2,57.215,36.47,117.982,36.47,180.615s-12.271,123.4-36.47,180.615c-23.371,55.254-56.825,104.875-99.433,147.482
		c-42.607,42.608-92.228,76.062-147.482,99.433C635.9,964.229,575.132,976.5,512.5,976.5z M512.5,80.5
		c-238.206,0-432,193.794-432,432s193.794,432,432,432s432-193.794,432-432S750.706,80.5,512.5,80.5z"></path>
	<path style="fill: rgb(19, 34, 122);" d="M800,752H224c-8.836,0-16-7.164-16-16V480c0-8.836,7.164-16,16-16s16,7.164,16,16v240h544V320H240
		v37.587l272.978,120.903l216.505-96.56c8.07-3.597,17.53,0.025,21.13,8.096c3.599,8.07-0.025,17.53-8.096,21.129l-223,99.457
		c-4.135,1.844-8.857,1.849-12.997,0.017l-289-128C211.732,380.065,208,374.331,208,368v-64c0-8.836,7.164-16,16-16h576
		c8.836,0,16,7.164,16,16v432C816,744.836,808.836,752,800,752z"></path>
</g>
</svg>